# xmcd
#
# Track frame offsets:
#	183
#	18208
#	33745
#	50758
#	66858
#	79645
#	93183
#	107958
#	122808
#	136720
#	150208
#	162508
#	182308
#	194395
#	210220
#	223158
#	239108
#	252820
#	268333
#	278308
#
# Disc length: 3900
#
# Revision: 1
# Processed by: cddbd v1.5.1PL0 Copyright (c) Steve Scherf et al.
# Submitted via: EasyCDDAExtractor 4.5.0.2
# Normalized: r0:TDELIM( - )
#
DISCID=130f3a14
DTITLE=x - 20 Volkstümliche Kuschelschlager
DYEAR=1900
DGENRE=Volksmusik und Schlager
TTITLE0=Salvo - Ich flüüge uf Dich
TTITLE1=Arno and Carlo - Aber dich, gibts nur einmal für mich
TTITLE2=Geschwister Biberstein - Es git Stunde
TTITLE3=Vic and Sepp - Im chliine Beizli
TTITLE4=Joe Gut - Heimwehmelodie
TTITLE5=Sabine and Peder Rizzi - Dänn tanze mir es Läbe lang
TTITLE6=Vico Torriani - An Dich
TTITLE7=Carlo Brunner - Die rote Sonne von San Antonio
TTITLE8=Friktaler Musikanten - Du bist der Grund meiner Träume
TTITLE9=Sandra - In der Strasse der Armen
TTITLE10=Vreni and Rudi - Marroni, Marroni, Marroni
TTITLE11=Louis Menar - Müeti, liebs Müeti
TTITLE12=Maja Brunner - Du und ich
TTITLE13=Beny Rheman und seine lustigen Musikanten - Du bist mir nah
TTITLE14=Peter Riesen - E sorglose Bueb
TTITLE15=Bea Abrecht - Es bitzli Sunneschii, es bitzli Räge
TTITLE16=Glarner Oberkrainer - Sag Dankeschön mit roten Rosen
TTITLE17=Kapelle Oberland and orig. Saxi Dreamers - Du bsich die Liebscht für mich
TTITLE18=Werner Schmid and Kapelle Via Mala - Mein Mütterlein
TTITLE19=Fredy Pulver - Du wirsch Vater min Liebe
EXTD=CD von I.B.\n
EXTT0=
EXTT1=
EXTT2=
EXTT3=
EXTT4=
EXTT5=
EXTT6=
EXTT7=
EXTT8=
EXTT9=
EXTT10=
EXTT11=
EXTT12=
EXTT13=
EXTT14=
EXTT15=
EXTT16=
EXTT17=
EXTT18=
EXTT19=
PLAYORDER=
